<svg id="Logo_Text_Standard" data-name="Logo Text Standard" xmlns="http://www.w3.org/2000/svg" viewBox="0 0 1575.2149 380"><defs><style>.cls-1{fill:#4276aa;}.cls-2{fill:#ee993e;}</style></defs><g id="Text_-_ntraShare" data-name="Text - ntraShare"><path class="cls-1" d="M437.7344,157.07l.82,18.5938q16.9512-21.3282,44.2969-21.3282,46.8925,0,47.3046,52.91V305H504.8633V207.1094q-.1377-15.9961-7.3145-23.6524t-22.3535-7.6562a36.5026,36.5026,0,0,0-21.6015,6.5625A44.5464,44.5464,0,0,0,439.1016,199.59V305h-25.293V157.07Z" transform="translate(-10 -10)"/><path class="cls-1" d="M602.6172,121.25v35.82h27.6172v19.5508H602.6172v91.8535q0,8.8989,3.6914,13.3477Q610,286.27,618.8867,286.27a61.2509,61.2509,0,0,0,12.0313-1.6406v20.3887a73.8031,73.8031,0,0,1-19.4141,2.7168q-16.9541,0-25.5664-10.2539t-8.6133-29.1211V176.6211H550.3906V157.07h26.9336V121.25Z" transform="translate(-10 -10)"/><path class="cls-1" d="M731.27,179.7656a75.9509,75.9509,0,0,0-12.4414-.957q-24.8847,0-33.7695,21.1914V305h-25.293V157.07H684.375l.41,17.09q12.4393-19.8223,35.2734-19.8243,7.3829,0,11.2109,1.9141Z" transform="translate(-10 -10)"/><path class="cls-1" d="M840.3711,305q-2.1885-4.374-3.5547-15.5859-17.6367,18.3222-42.1094,18.32-21.876,0-35.8886-12.3731-14.0157-12.372-14.0137-31.3769,0-23.1036,17.5683-35.8887,17.5665-12.7823,49.4239-12.7832h24.6093V203.6914q0-13.26-7.93-21.123-7.9307-7.86-23.3789-7.8614-13.5353,0-22.6954,6.836-9.1611,6.8379-9.16,16.5429h-25.43q0-11.0742,7.8613-21.3964t21.3282-16.3379a71.7543,71.7543,0,0,1,29.6-6.0157q25.5644,0,40.0586,12.7832,14.49,12.7852,15.039,35.2051V270.41q0,20.373,5.1953,32.4023V305Zm-41.9727-19.2773A44.4525,44.4525,0,0,0,820.957,279.57q10.6641-6.1522,15.4492-15.9961V233.2227H816.582q-46.4853,0-46.4843,27.207,0,11.8945,7.93,18.5937Q785.9551,285.7236,798.3984,285.7227Z" transform="translate(-10 -10)"/><path class="cls-1" d="M963.9648,216.27q-33.77-9.7061-49.15-23.8574a45.5807,45.5807,0,0,1-15.3809-34.9316q0-23.5137,18.7988-38.8965,18.797-15.3809,48.877-15.3809,20.5077,0,36.5722,7.93a60.1441,60.1441,0,0,1,24.8829,21.875,55.9393,55.9393,0,0,1,8.8183,30.4883h-26.3867q0-18.1113-11.4844-28.47Q988.0274,124.67,967.1094,124.668q-19.4151,0-30.2832,8.562T925.957,156.9912q0,12.1926,10.3223,20.6148,10.3214,8.4243,35.1367,15.4086t38.8281,15.3936q14.0127,8.4083,20.7813,19.6191t6.7676,26.3868q0,24.1992-18.8672,38.76t-50.4492,14.5606a93.5723,93.5723,0,0,1-38.2813-7.8614q-17.7744-7.86-27.4121-21.5332a52.5447,52.5447,0,0,1-9.6387-31.0351h26.3867q0,18.0468,13.33,28.5058t35.6153,10.459q20.78,0,31.8554-8.4765t11.0742-23.1055q0-14.628-10.2539-22.627T963.9648,216.27Z" transform="translate(-10 -10)"/><path class="cls-1" d="M1092.7539,174.9805q16.8164-20.6426,43.75-20.6446,46.8926,0,47.3047,52.91V305h-25.293V207.1094q-.1377-15.9961-7.3144-23.6524t-22.3535-7.6562a36.5029,36.5029,0,0,0-21.6016,6.5625,44.5472,44.5472,0,0,0-14.4922,17.2265V305h-25.293V95h25.293Z" transform="translate(-10 -10)"/><path class="cls-1" d="M1313.0078,305q-2.1885-4.374-3.5547-15.5859-17.6367,18.3222-42.1093,18.32-21.876,0-35.8887-12.3731-14.0157-12.372-14.0137-31.3769,0-23.1036,17.5684-35.8887,17.5664-12.7823,49.4238-12.7832h24.6094V203.6914q0-13.26-7.93-21.123-7.9307-7.86-23.3789-7.8614-13.5353,0-22.6953,6.836-9.1613,6.8379-9.16,16.5429h-25.43q0-11.0742,7.8613-21.3964t21.3282-16.3379a71.7543,71.7543,0,0,1,29.6-6.0157q25.5643,0,40.0586,12.7832,14.49,12.7852,15.039,35.2051V270.41q0,20.373,5.1953,32.4023V305Zm-41.9726-19.2773a44.4531,44.4531,0,0,0,22.5586-6.1524q10.6639-6.1522,15.4492-15.9961V233.2227h-19.8242q-46.4855,0-46.4844,27.207,0,11.8945,7.93,18.5937Q1258.5918,285.7236,1271.0352,285.7227Z" transform="translate(-10 -10)"/><path class="cls-1" d="M1445.4883,179.7656a75.9518,75.9518,0,0,0-12.4414-.957q-24.8848,0-33.77,21.1914V305h-25.2929V157.07h24.6094l.41,17.09q12.44-19.8223,35.2734-19.8243,7.3829,0,11.211,1.9141Z" transform="translate(-10 -10)"/><path class="cls-1" d="M1527.52,307.7344q-30.0791,0-48.9453-19.7559t-18.8672-52.8418v-4.6484q0-22.0107,8.4082-39.3067a65.594,65.594,0,0,1,23.5157-27.07,59.1307,59.1307,0,0,1,32.7441-9.7754q28.8457,0,44.8438,19.0039,15.996,19.005,15.996,54.4141v10.5273H1485q.5449,21.876,12.7832,35.3418,12.2344,13.4679,31.1035,13.4668,13.3976,0,22.6953-5.4687a57.0139,57.0139,0,0,0,16.27-14.4922l15.4492,12.0313Q1564.706,307.7363,1527.52,307.7344Zm-3.1445-132.6172a33.7362,33.7362,0,0,0-25.7031,11.1426Q1488.28,197.4044,1485.82,217.5h74.1016v-1.9141q-1.0958-19.2773-10.3907-29.873Q1540.2324,175.1192,1524.375,175.1172Z" transform="translate(-10 -10)"/></g><g id="Logo"><g id="Outer_Circle" data-name="Outer Circle"><path class="cls-2" d="M200,40A160,160,0,0,1,313.1371,313.1371,160,160,0,0,1,86.8629,86.8629,158.9527,158.9527,0,0,1,200,40m0-30C95.0659,10,10,95.0659,10,200S95.0659,390,200,390s190-85.0659,190-190S304.9341,10,200,10Z" transform="translate(-10 -10)"/></g><path id="i_-_Body" data-name="i - Body" class="cls-1" d="M249.97,166.8953c1.0016-36.02-88.9984-31.9294-90.2067,29.4292-.7917,24.5434,28.2083,44.9963,27.7149,75.5643-.5066,24.6548-39.2746,31.6461-37.3906,53.2052s66.884,31.7856,90.3284-32.1533c14.5556-39.3482-20.4444-75.1407-20.4444-97.6389C219.9719,179.9622,249.9688,190.6435,249.97,166.8953Z" transform="translate(-10 -10)"/><circle id="i_-_Dot" data-name="i - Dot" class="cls-1" cx="190" cy="80" r="35"/></g></svg>